<?xml version="1.0" encoding="UTF-8"?>
<svg version="1.1" xmlns="http://www.w3.org/2000/svg" width="1280" height="204">
<path d="M0 0 C35.97 0 71.94 0 109 0 C100.95139289 28.74502539 100.95139289 28.74502539 97.0234375 42.19140625 C96.57493035 43.73050722 96.1265396 45.2696421 95.67825317 46.80880737 C94.49074805 50.88484822 93.30165447 54.96042393 92.11221313 59.03590012 C90.85574877 63.34209403 89.60082177 67.64873597 88.34570312 71.95532227 C86.0069097 79.97936974 83.66677495 88.00302529 81.3260231 96.02650166 C79.54794071 102.12137404 77.77034944 108.21638943 75.99316406 114.31152344 C75.74948153 115.14727056 75.50579899 115.98301767 75.25473213 116.84409046 C74.76762502 118.51471033 74.28051932 120.18533061 73.79341507 121.85595131 C69.66607474 136.01126958 65.53748905 150.16622421 61.40750122 164.32077026 C57.93744737 176.21358844 54.46884186 188.1068279 51 200 C34.17 200 17.34 200 0 200 C0 134 0 68 0 0 Z " fill="#FFCF32" transform="translate(0,0)"/>
<path d="M0 0 C31.16700668 -0.16065467 31.16700668 -0.16065467 46.57567978 -0.20101547 C54.90503828 -0.22317039 63.23423634 -0.2512857 71.56347656 -0.30175781 C78.15869878 -0.34170327 84.75379986 -0.36745116 91.34913969 -0.37635398 C94.83940349 -0.38155579 98.32932082 -0.39372838 101.81947327 -0.42292023 C105.72151037 -0.45529053 109.62321258 -0.45595446 113.52539062 -0.45410156 C115.2495369 -0.47567322 115.2495369 -0.47567322 117.0085144 -0.49768066 C123.81456989 -0.46274336 128.21083927 0.34330705 134 4 C138.62965629 8.87332241 140.24731426 12.63278354 140.2746582 19.32568359 C140.28419022 20.6073642 140.29372223 21.8890448 140.30354309 23.20956421 C140.30328163 24.60585559 140.30234439 26.00214697 140.30078125 27.3984375 C140.30467034 28.8356641 140.30900545 30.27288955 140.31376648 31.71011353 C140.32122258 34.72116828 140.32094225 37.73210577 140.31567383 40.74316406 C140.30988524 44.59216916 140.32679788 48.44069211 140.3500185 52.28961754 C140.36478883 55.2579934 140.36562299 58.22625409 140.36250877 61.19466019 C140.36302051 62.61316506 140.3682304 64.03167664 140.37832069 65.45014572 C140.39072799 67.43856856 140.38193069 69.42708905 140.37231445 71.41552734 C140.37294388 72.54485687 140.3735733 73.6741864 140.3742218 74.83773804 C139.74639831 80.14299377 137.58156655 83.99187648 133.4375 87.3125 C132.83808594 87.80363281 132.23867188 88.29476562 131.62109375 88.80078125 C128.58989533 91.04313767 126.62496589 91.12389918 122.90011597 91.12025452 C121.2804744 91.12231651 121.2804744 91.12231651 119.62811279 91.12442017 C118.43840881 91.12082489 117.24870483 91.11722961 116.02294922 91.11352539 C114.14982559 91.11374443 114.14982559 91.11374443 112.23886108 91.1139679 C108.80931337 91.11338952 105.37982543 91.10836519 101.9502883 91.10139394 C98.36815662 91.09515378 94.78602421 91.09455608 91.20388794 91.09336853 C84.4182475 91.09025717 77.63262311 91.08204641 70.84698975 91.07201904 C61.67922603 91.05876483 52.51145794 91.05335642 43.34368706 91.04751682 C28.89577934 91.0381064 14.44790551 91.01818617 0 91 C0 60.97 0 30.94 0 0 Z M37 24 C37 38.52 37 53.04 37 68 C44.73013856 68.08394721 52.45862097 68.16407464 60.18881989 68.20700073 C63.78875788 68.22809983 67.38831751 68.2562812 70.98803711 68.30175781 C74.45696052 68.34530641 77.92551765 68.36915581 81.39469337 68.37950897 C83.35844133 68.3904672 85.32204247 68.42167925 87.28556824 68.45318604 C89.08686943 68.45363922 89.08686943 68.45363922 90.92456055 68.45410156 C92.50674629 68.46742523 92.50674629 68.46742523 94.12089539 68.48101807 C97.72846833 67.87829326 99.38909823 66.5078353 102 64 C104.24334174 59.51331652 103.31119375 53.00593594 103.35009766 48.0246582 C103.36664362 46.47177123 103.39391642 44.91896 103.43212891 43.36645508 C103.48704414 41.12280959 103.50879138 38.88094675 103.5234375 36.63671875 C103.55744156 35.60208748 103.55744156 35.60208748 103.59213257 34.54655457 C103.57731848 31.1479257 103.00787916 29.01391796 101.33178711 26.05322266 C95.91206289 22.71330321 90.39991029 23.38881094 84.16796875 23.51171875 C82.8074931 23.52105188 81.44700058 23.52816564 80.08650208 23.53315735 C76.51698883 23.55218869 72.94850347 23.6012532 69.37939453 23.65667725 C65.73289138 23.70795493 62.08621611 23.73096391 58.43945312 23.75585938 C51.29206291 23.80672324 44.14748996 23.90458705 37 24 Z " fill="#000000" transform="translate(784,59)"/>
<path d="M0 0 C43 0 43 0 54.35546875 7.19140625 C57.15377209 10.28426784 59.66665506 13.27595462 62.1875 16.5625 C63.55050885 18.15107664 64.92492704 19.72993472 66.31054688 21.29882812 C68.83412537 24.17433006 71.27096416 27.09101628 73.65307617 30.08422852 C75.82839947 32.73689247 78.06029868 35.03137592 80.66918945 37.25756836 C86.39010518 42.2012471 91.65356023 47.65356023 97 53 C97.33 35.51 97.66 18.02 98 0 C110.21 0 122.42 0 135 0 C135 30.03 135 60.06 135 91 C91 91 91 91 80.421875 84.68359375 C77.98982471 81.94887053 75.88462784 79.36522934 73.75 76.4375 C72.58479242 75.04143404 71.40759938 73.65528598 70.21875 72.27929688 C67.988151 69.67219325 65.82282515 67.03099447 63.70507812 64.33154297 C61.6856321 61.79003314 59.6390367 59.56290497 57.140625 57.47265625 C50.3467539 51.77477756 44.26986866 45.26986866 38 39 C37.67 56.16 37.34 73.32 37 91 C24.79 91 12.58 91 0 91 C0 60.97 0 30.94 0 0 Z " fill="#000000" transform="translate(1096,59)"/>
<path d="M0 0 C46.2 0 92.4 0 140 0 C140 7.92 140 15.84 140 24 C106.01 24 72.02 24 37 24 C37 27.3 37 30.6 37 34 C65.71 34 94.42 34 124 34 C124 41.59 124 49.18 124 57 C95.29 57 66.58 57 37 57 C37 68.22 37 79.44 37 91 C24.79 91 12.58 91 0 91 C0 60.97 0 30.94 0 0 Z " fill="#000000" transform="translate(943,59)"/>
<path d="M0 0 C0.33 0 0.66 0 1 0 C1 44.55 1 89.1 1 135 C-12.53 135 -26.06 135 -40 135 C-33.27787906 111.37794195 -26.45341665 87.79010425 -19.52301025 64.22851562 C-18.09353801 59.36774513 -16.66568225 54.50649957 -15.2378521 49.64524651 C-14.08912292 45.73430778 -12.93990404 41.82351498 -11.78933716 37.91311646 C-9.77905001 31.07821885 -7.7765046 24.24139852 -5.80224609 17.39599609 C-5.47463791 16.26224045 -5.14702972 15.1284848 -4.80949402 13.96037292 C-4.21216715 11.88983405 -3.61751774 9.81852009 -3.02607727 7.74629211 C-2.76956894 6.85765976 -2.51306061 5.9690274 -2.2487793 5.0534668 C-2.02957321 4.28753708 -1.81036713 3.52160736 -1.58451843 2.73246765 C-1 1 -1 1 0 0 Z " fill="#FFCF32" transform="translate(201,65)"/>
<path d="M0 0 C3.96 0 7.92 0 12 0 C2.17101456 34.64723668 -7.87555217 69.22871596 -17.9763298 103.79740143 C-23.67527107 123.30154719 -29.3544687 142.811436 -35.03291702 162.32155609 C-36.3179807 166.73669992 -37.603215 171.15179409 -38.88842773 175.56689453 C-41.25915879 183.71120279 -43.62966624 191.8555761 -46 200 C-49.96 200 -53.92 200 -58 200 C-55.3654967 189.14620633 -52.46151615 178.40364202 -49.31640625 167.6875 C-48.86354561 166.13590226 -48.41096293 164.58422337 -47.95863342 163.0324707 C-46.74799799 158.88201842 -45.533657 154.73265902 -44.31861115 150.58349609 C-43.0393774 146.21258395 -41.76374798 141.84062016 -40.48779297 137.46875 C-38.37621583 130.23517831 -36.26275536 123.00215954 -34.14794922 115.76953125 C-31.13730487 105.47260641 -28.13207105 95.1741085 -25.12890625 84.875 C-24.77723105 83.66896622 -24.77723105 83.66896622 -24.41845131 82.43856812 C-23.49020552 79.25519973 -22.56196852 76.07182878 -21.63378239 72.88844299 C-20.12058621 67.6988566 -18.60653969 62.50951891 -17.09204102 57.3203125 C-16.48169102 55.22871234 -15.87135743 53.1371074 -15.26102638 51.04550171 C-14.86634453 49.69312105 -14.47157946 48.34076467 -14.07672691 46.98843384 C-11.8527944 39.37161132 -9.63751499 31.752392 -7.43652344 24.12890625 C-7.01707061 22.67772523 -6.59758663 21.22655322 -6.17807007 19.77539062 C-5.38250451 17.02339448 -4.58943826 14.27069471 -3.79776001 11.51757812 C-3.44474823 10.29619141 -3.09173645 9.07480469 -2.72802734 7.81640625 C-2.41747406 6.73818604 -2.10692078 5.65996582 -1.78695679 4.54907227 C-1 2 -1 2 0 0 Z " fill="#111010" transform="translate(189,0)"/>
<path d="M0 0 C1.51400391 0.01740234 1.51400391 0.01740234 3.05859375 0.03515625 C4.07050781 0.04417969 5.08242187 0.05320313 6.125 0.0625 C6.90746094 0.07410156 7.68992187 0.08570313 8.49609375 0.09765625 C6.85754792 9.38101538 4.22119938 18.32453668 1.5703125 27.35546875 C1.06956497 29.0728761 0.56919297 30.79039298 0.06916809 32.50801086 C-1.2753223 37.12260991 -2.62493151 41.73569732 -3.97549438 46.34852219 C-5.38778022 51.17554269 -6.79522276 56.00397488 -8.203125 60.83227539 C-10.50873004 68.73705995 -12.81701508 76.64105691 -15.12744141 84.54443359 C-18.26143594 95.26526184 -21.38971569 105.98774938 -24.515625 116.7109375 C-25.45334957 119.92757732 -26.39109517 123.14421101 -27.32885742 126.36083984 C-27.55418687 127.13376373 -27.77951632 127.90668762 -28.01167393 128.70303345 C-29.51113179 133.84608645 -31.0117033 138.98881347 -32.51293945 144.13134766 C-32.71405681 144.82041451 -32.91517416 145.50948135 -33.12238598 146.21942902 C-34.10121595 149.57305701 -35.08043645 152.92656988 -36.06047058 156.27984619 C-38.07418754 163.17353514 -40.07416783 170.07096396 -42.05859375 176.97314453 C-42.68281586 179.13981879 -43.30727547 181.30642445 -43.93180847 183.47300911 C-44.52354402 185.52994711 -45.11172194 187.58788097 -45.6998291 189.64585876 C-46.05347534 190.87268875 -46.40712158 192.09951874 -46.77148438 193.36352539 C-47.08283325 194.449767 -47.39418213 195.53600861 -47.71496582 196.65516663 C-48.50390625 199.09765625 -48.50390625 199.09765625 -49.50390625 200.09765625 C-51.35678127 200.16992127 -53.21224503 200.18146845 -55.06640625 200.16015625 C-56.07832031 200.15113281 -57.09023437 200.14210937 -58.1328125 200.1328125 C-59.30650391 200.11541016 -59.30650391 200.11541016 -60.50390625 200.09765625 C-58.87620023 190.89795082 -56.27649281 182.03585541 -53.6484375 173.0859375 C-53.15311688 171.38754415 -52.65817755 169.68903956 -52.16358948 167.99043274 C-50.82999594 163.41410932 -49.49131634 158.83928806 -48.15172577 154.2647171 C-46.7479582 149.46758275 -45.3490185 144.66904116 -43.94970703 139.87060547 C-41.62992019 131.91750145 -39.30764848 123.96512704 -36.98388672 116.01318359 C-33.64052685 104.57089028 -30.30686314 93.12578769 -26.9765625 81.6796875 C-26.58669505 80.33980617 -26.58669505 80.33980617 -26.18895149 78.97285652 C-25.16158009 75.4419981 -24.13424222 71.91112993 -23.10698414 68.38023853 C-21.41545766 62.56621603 -19.72328582 56.75238178 -18.03051758 50.9387207 C-17.6897703 49.76837107 -17.6897703 49.76837107 -17.34213924 48.57437801 C-16.24968266 44.82249362 -15.15673204 41.07075442 -14.06272888 37.31932068 C-12.14625497 30.74640946 -10.23505634 24.17214056 -8.34082031 17.59277344 C-8.01296539 16.45762299 -7.68511047 15.32247253 -7.34732056 14.15292358 C-6.7461365 12.07038631 -6.14747507 9.98711844 -5.55184937 7.90298462 C-5.29320099 7.00864716 -5.03455261 6.11430969 -4.76806641 5.19287109 C-4.54607574 4.41938324 -4.32408508 3.64589539 -4.09536743 2.84896851 C-3.17737781 0.13080792 -2.96966447 0.11582155 0 0 Z " fill="#111010" transform="translate(130.50390625,-0.09765625)"/>
<path d="M0 0 C3.96 0 7.92 0 12 0 C9.35577439 10.91457964 6.42084765 21.70762184 3.23828125 32.4765625 C2.77377938 34.05756708 2.30959666 35.63866545 1.84570312 37.21984863 C0.85466711 40.5958345 -0.13822126 43.97126731 -1.13265991 47.34625244 C-3.53557808 55.50185018 -5.92917903 63.6601846 -8.32334328 71.81835556 C-8.88076563 73.7176148 -9.43831128 75.61683786 -9.9959774 77.51602554 C-14.34471927 92.32651881 -18.66618789 107.14477799 -22.96875 121.96875 C-23.25238718 122.94580273 -23.53602436 123.92285545 -23.82825661 124.92951584 C-26.58883907 134.43943546 -29.34733824 143.94995628 -32.10248375 153.46145248 C-33.12280702 156.98263369 -34.14443746 160.50343478 -35.16635132 164.02415466 C-35.63555052 165.64184341 -36.10415766 167.25970403 -36.57208252 168.87776184 C-39.58455893 179.29444142 -42.72513175 189.66272493 -46 200 C-49.96 200 -53.92 200 -58 200 C-52.24525042 179.1850282 -46.22376357 158.45006231 -40.1842804 137.7163353 C-39.08921164 133.95618526 -37.99508168 130.19576233 -36.9009552 126.43533802 C-33.26999915 113.95610654 -29.63555754 101.4778916 -26 89 C-25.73628098 88.09482635 -25.47256195 87.18965271 -25.20085144 86.25704956 C-21.55211393 73.73341545 -17.90196654 61.2101929 -14.25 48.6875 C-14.02999077 47.93306988 -13.80998154 47.17863976 -13.58330536 46.40134811 C-4.39779376 14.90472098 -4.39779376 14.90472098 0 0 Z " fill="#111010" transform="translate(158,0)"/>
<path d="M0 0 C5.28 0 10.56 0 16 0 C16 22.44 16 44.88 16 68 C12.37 68 8.74 68 5 68 C4.67 51.83 4.34 35.66 4 19 C-0.57972678 29.13804525 -0.57972678 29.13804525 -5.15234375 39.27929688 C-9.53784498 48.97759079 -14.18822135 58.50532963 -19 68 C-24.61 68 -30.22 68 -36 68 C-36 45.89 -36 23.78 -36 1 C-32.04 1 -28.08 1 -24 1 C-23.67 17.5 -23.34 34 -23 51 C-19.9475 44.255625 -16.895 37.51125 -13.75 30.5625 C-12.31672363 27.39636108 -12.31672363 27.39636108 -10.85449219 24.16625977 C-10.08526264 22.46631937 -9.31605546 20.76636886 -8.546875 19.06640625 C-8.15709473 18.20559448 -7.76731445 17.34478271 -7.36572266 16.45788574 C-4.88830675 10.98161538 -2.43572808 5.49494432 0 0 Z " fill="#040606" transform="translate(333,67)"/>
<path d="M0 0 C4.95 0 9.9 0 15 0 C15 22.44 15 44.88 15 68 C11.7 68 8.4 68 5 68 C4.67 51.83 4.34 35.66 4 19 C1.504375 24.300625 -0.99125 29.60125 -3.5625 35.0625 C-4.33408447 36.700979 -5.10566895 38.33945801 -5.90063477 40.02758789 C-10.286049 49.3429545 -14.65096979 58.66758696 -19 68 C-24.61 68 -30.22 68 -36 68 C-36 45.89 -36 23.78 -36 1 C-32.04 1 -28.08 1 -24 1 C-23.67 17.17 -23.34 33.34 -23 50 C-16.92547626 36.5388841 -16.92547626 36.5388841 -10.85449219 23.07617188 C-10.08541335 21.37364059 -9.31621541 19.6711631 -8.546875 17.96875 C-8.15709473 17.10282227 -7.76731445 16.23689453 -7.36572266 15.34472656 C-5.02382169 10.16727423 -2.5741123 5.06618118 0 0 Z " fill="#040606" transform="translate(451,67)"/>
<path d="M0 0 C14.19 0 28.38 0 43 0 C43 3.3 43 6.6 43 10 C32.44 10 21.88 10 11 10 C11 15.28 11 20.56 11 26 C12.711875 25.95359375 14.42375 25.9071875 16.1875 25.859375 C18.45831581 25.82184085 20.72915058 25.78544247 23 25.75 C24.12535156 25.71648437 25.25070312 25.68296875 26.41015625 25.6484375 C33.45369439 25.56605694 38.05501258 26.11770097 44 30 C48.28230086 34.88246335 48.3625231 40.33740865 48.4375 46.5625 C48.4478125 47.28268311 48.458125 48.00286621 48.46875 48.74487305 C48.37495461 54.43838332 47.3050714 59.25850174 43.53515625 63.7421875 C37.95837069 68.03202255 33.83518555 68.1455426 26.953125 68.09765625 C26.26911621 68.09664917 25.58510742 68.09564209 24.88037109 68.09460449 C22.33689689 68.0893913 19.79344668 68.07543006 17.25 68.0625 C8.71125 68.0315625 8.71125 68.0315625 0 68 C0 45.56 0 23.12 0 0 Z M11 37 C11 43.93 11 50.86 11 58 C14.77125953 58.08074862 18.54079993 58.1403818 22.3125 58.1875 C23.9202832 58.22520508 23.9202832 58.22520508 25.56054688 58.26367188 C26.58857422 58.27333984 27.61660156 58.28300781 28.67578125 58.29296875 C29.62364502 58.3086792 30.57150879 58.32438965 31.5480957 58.34057617 C34.03582554 58.19713173 34.03582554 58.19713173 35.77026367 56.66918945 C38.00260156 53.63911319 38.18358527 50.76674119 38.25 47.125 C38.27578125 46.28195313 38.3015625 45.43890625 38.328125 44.5703125 C37.91274119 41.31647266 37.00133072 39.59752873 35 37 C32.40247535 36.31197745 32.40247535 36.31197745 29.45703125 36.51171875 C27.84731445 36.53588867 27.84731445 36.53588867 26.20507812 36.56054688 C24.52575195 36.62338867 24.52575195 36.62338867 22.8125 36.6875 C21.68134766 36.71005859 20.55019531 36.73261719 19.38476562 36.75585938 C16.58928127 36.81483584 13.79447562 36.90451678 11 37 Z " fill="#040606" transform="translate(357,67)"/>
<path d="M0 0 C3.63 0 7.26 0 11 0 C11 8.58 11 17.16 11 26 C19.58 26 28.16 26 37 26 C37 17.42 37 8.84 37 0 C40.63 0 44.26 0 48 0 C48 22.44 48 44.88 48 68 C44.37 68 40.74 68 37 68 C37 57.77 37 47.54 37 37 C28.42 37 19.84 37 11 37 C11 47.23 11 57.46 11 68 C7.37 68 3.74 68 0 68 C0 45.56 0 23.12 0 0 Z " fill="#040606" transform="translate(476,67)"/>
<path d="M0 0 C3.3 0 6.6 0 10 0 C10 8.58 10 17.16 10 26 C16.94477904 24.36773201 16.94477904 24.36773201 20.421875 19.5703125 C20.97230469 18.69246094 21.52273438 17.81460938 22.08984375 16.91015625 C22.63769531 15.99105469 23.18554688 15.07195312 23.75 14.125 C24.86900555 12.31461803 25.98877026 10.50470503 27.109375 8.6953125 C27.59374023 7.89109863 28.07810547 7.08688477 28.57714844 6.25830078 C31.36291036 1.83683582 31.36291036 1.83683582 33 0 C35.71229503 -0.29642569 37.99739732 -0.38061189 40.6875 -0.25 C41.38939453 -0.23195313 42.09128906 -0.21390625 42.81445312 -0.1953125 C44.54355436 -0.14826213 46.27195205 -0.07651873 48 0 C46.65961958 2.86272909 45.13760321 5.2931052 43.20703125 7.79296875 C42.66183838 8.50163086 42.11664551 9.21029297 41.55493164 9.94042969 C40.9799292 10.68196289 40.40492676 11.42349609 39.8125 12.1875 C39.23040771 12.94836914 38.64831543 13.70923828 38.04858398 14.49316406 C34.46467874 19.1664766 30.79714702 23.7405588 26.87890625 28.140625 C25.74759764 30.03068505 25.74759764 30.03068505 26.56640625 32.34765625 C28.26420683 35.48881862 30.24910633 38.32961212 32.375 41.1875 C36.59456931 46.9741797 40.6507436 52.85467763 44.625 58.8125 C45.15786621 59.60744873 45.69073242 60.40239746 46.23974609 61.22143555 C46.73039551 61.95918213 47.22104492 62.69692871 47.7265625 63.45703125 C48.16564941 64.11678955 48.60473633 64.77654785 49.05712891 65.45629883 C50 67 50 67 50 68 C44.6678437 68.82153364 39.25465312 69.57349103 34 68 C29.56240043 64.05166661 27.16825683 59.36409509 24.5 54.125 C23.75937079 52.78992266 23.01331147 51.45784249 22.26171875 50.12890625 C17 40.68116015 17 40.68116015 17 38 C14.69 38 12.38 38 10 38 C10 47.9 10 57.8 10 68 C6.7 68 3.4 68 0 68 C0 45.56 0 23.12 0 0 Z " fill="#040606" transform="translate(635,67)"/>
<path d="M0 0 C2.09171409 -0.00969958 4.1824424 -0.04073325 6.27392578 -0.07226562 C7.61115956 -0.07879702 8.94840033 -0.08404696 10.28564453 -0.08789062 C12.10298096 -0.10190918 12.10298096 -0.10190918 13.95703125 -0.11621094 C18.1894536 0.34458971 20.57677648 2.01491545 23.91845703 4.49023438 C27.38983798 9.11874231 27.45810725 14.67505404 27.23095703 20.24023438 C23.93095703 20.24023438 20.63095703 20.24023438 17.23095703 20.24023438 C16.79783203 19.12648438 16.36470703 18.01273438 15.91845703 16.86523438 C14.53184584 13.06511104 14.53184584 13.06511104 11.23095703 11.24023438 C8.55925845 11.01807369 6.02582832 10.91570793 3.35595703 10.92773438 C2.64826172 10.91162109 1.94056641 10.89550781 1.21142578 10.87890625 C-3.28305057 10.87472145 -6.47798038 11.06454114 -9.76904297 14.24023438 C-12.40526489 20.67181225 -12.07287671 27.91232156 -12.01904297 34.74023438 C-12.02677734 35.72121094 -12.03451172 36.7021875 -12.04248047 37.71289062 C-12.11357599 46.68479287 -12.11357599 46.68479287 -9.76904297 55.24023438 C-5.58670134 58.42881261 -1.79967985 58.62511373 3.35595703 58.55273438 C4.55478516 58.54886719 5.75361328 58.545 6.98876953 58.54101562 C10.05339765 58.25670675 11.77362918 58.05179933 14.23095703 56.24023438 C15.34568838 54.30919529 15.34568838 54.30919529 15.98095703 52.11523438 C16.59970703 50.19710937 16.59970703 50.19710937 17.23095703 48.24023438 C20.53095703 48.24023438 23.83095703 48.24023438 27.23095703 48.24023438 C27.54770579 54.15287778 27.17378386 58.99432568 24.23095703 64.24023438 C17.82376473 70.48724687 10.9250626 69.45618556 2.48095703 69.49023438 C0.58603516 69.52117187 0.58603516 69.52117187 -1.34716797 69.55273438 C-8.84805388 69.5842507 -14.37692719 69.42073201 -20.58154297 64.92773438 C-24.37775756 59.53311363 -24.07599277 53.36045743 -24.06982422 47.05664062 C-24.07410934 46.08291 -24.07839447 45.10917938 -24.08280945 44.10594177 C-24.08853614 42.05265071 -24.08906529 39.99933937 -24.0847168 37.94604492 C-24.08155691 34.81654027 -24.1050369 31.6879817 -24.13037109 28.55859375 C-24.13264437 26.55794389 -24.13334745 24.55729151 -24.13232422 22.55664062 C-24.14153397 21.62727188 -24.15074371 20.69790314 -24.16023254 19.7403717 C-24.12061241 14.13625304 -23.4605705 10.18924995 -20.76904297 5.24023438 C-14.5297342 -0.68710896 -8.09255402 0.02273722 0 0 Z " fill="#050608" transform="translate(261.76904296875,66.759765625)"/>
<path d="M0 0 C2.64 0 5.28 0 8 0 C8 67.32 8 134.64 8 204 C5.36 204 2.72 204 0 204 C0 136.68 0 69.36 0 0 Z " fill="#000000" transform="translate(730,0)"/>
<path d="M0 0 C1.12563103 0.00212242 1.12563103 0.00212242 2.27400208 0.00428772 C4.66838585 0.00988065 7.06267578 0.02243181 9.45703125 0.03515625 C11.08137886 0.04017217 12.70572793 0.04473491 14.33007812 0.04882812 C18.30993194 0.05984777 22.28971569 0.07710752 26.26953125 0.09765625 C26.26953125 3.39765625 26.26953125 6.69765625 26.26953125 10.09765625 C25.40150879 10.11747559 24.53348633 10.13729492 23.63916016 10.15771484 C20.42226858 10.23575497 17.2057608 10.32244506 13.98925781 10.41503906 C12.59644553 10.45334952 11.2035336 10.48819884 9.81054688 10.51953125 C7.80966817 10.56513532 5.80910979 10.62417248 3.80859375 10.68359375 C2.60412598 10.71501465 1.3996582 10.74643555 0.15869141 10.77880859 C-2.85647055 10.80680851 -2.85647055 10.80680851 -4.73046875 13.09765625 C-5.06046875 17.38765625 -5.39046875 21.67765625 -5.73046875 26.09765625 C3.17953125 26.09765625 12.08953125 26.09765625 21.26953125 26.09765625 C21.26953125 29.72765625 21.26953125 33.35765625 21.26953125 37.09765625 C12.35953125 37.09765625 3.44953125 37.09765625 -5.73046875 37.09765625 C-5.54484375 40.93390625 -5.54484375 40.93390625 -5.35546875 44.84765625 C-5.32146973 45.64655273 -5.2874707 46.44544922 -5.25244141 47.26855469 C-4.96700068 52.48995714 -4.96700068 52.48995714 -2.73046875 57.09765625 C0.0063185 58.46604988 2.31217549 58.31400443 5.37109375 58.4140625 C7.18867187 58.4769043 7.18867187 58.4769043 9.04296875 58.54101562 C10.31398438 58.58033203 11.585 58.61964844 12.89453125 58.66015625 C14.17328125 58.70333984 15.45203125 58.74652344 16.76953125 58.79101562 C19.93608473 58.89735511 23.10271878 58.99938458 26.26953125 59.09765625 C26.26953125 62.06765625 26.26953125 65.03765625 26.26953125 68.09765625 C21.51899614 68.17200847 16.76880238 68.22635316 12.01782227 68.26245117 C10.40285336 68.27750501 8.78792512 68.29795273 7.1730957 68.32397461 C4.8470657 68.36050911 2.52157784 68.3774164 0.1953125 68.390625 C-0.8815406 68.41385078 -0.8815406 68.41385078 -1.98014832 68.43754578 C-6.43244619 68.43902868 -9.17244332 67.79524685 -12.73046875 65.09765625 C-16.24235924 61.20949178 -16.84715554 57.65609139 -16.89160156 52.53198242 C-16.90120911 51.6339238 -16.91081665 50.73586517 -16.92071533 49.81059265 C-16.92496521 48.84700333 -16.92921509 47.883414 -16.93359375 46.890625 C-16.93929382 45.89186844 -16.9449939 44.89311188 -16.9508667 43.86408997 C-16.96030604 41.75177059 -16.96684644 39.63943656 -16.97070312 37.52709961 C-16.98040139 34.30751646 -17.01143225 31.08857383 -17.04296875 27.86914062 C-17.04950001 25.81380586 -17.05475 23.75846655 -17.05859375 21.703125 C-17.07094055 20.74560837 -17.08328735 19.78809174 -17.0960083 18.80155945 C-17.0747788 12.38187894 -16.36544074 7.39137124 -12.23046875 2.22265625 C-8.55167985 -0.53643542 -4.36125387 -0.03091035 0 0 Z " fill="#050608" transform="translate(601.73046875,66.90234375)"/>
<path d="M0 0 C15.84 0 31.68 0 48 0 C48 3.63 48 7.26 48 11 C41.73 11 35.46 11 29 11 C29 29.81 29 48.62 29 68 C25.7 68 22.4 68 19 68 C19 49.19 19 30.38 19 11 C12.73 11 6.46 11 0 11 C0 7.37 0 3.74 0 0 Z " fill="#040606" transform="translate(531,67)"/>
<path d="M0 0 C5.28 0 10.56 0 16 0 C16 8.25 16 16.5 16 25 C16.66 25 17.32 25 18 25 C18 27.97 18 30.94 18 34 C17.01 34 16.02 34 15 34 C15 32.02 15 30.04 15 28 C10.05 28 5.1 28 0 28 C0 29.98 0 31.96 0 34 C-0.99 34 -1.98 34 -3 34 C-3.05422947 32.5629191 -3.09289723 31.12524538 -3.125 29.6875 C-3.14820313 28.88699219 -3.17140625 28.08648437 -3.1953125 27.26171875 C-3 25 -3 25 -1 22 C-0.6336141 19.58286521 -0.6336141 19.58286521 -0.5859375 16.89453125 C-0.54726563 15.91162109 -0.50859375 14.92871094 -0.46875 13.91601562 C-0.4378125 12.89185547 -0.406875 11.86769531 -0.375 10.8125 C-0.33632813 9.77673828 -0.29765625 8.74097656 -0.2578125 7.67382812 C-0.16352131 5.11617973 -0.08067082 2.55811422 0 0 Z M4 4 C3.505 14.395 3.505 14.395 3 25 C6.3 25 9.6 25 13 25 C13 18.07 13 11.14 13 4 C10.03 4 7.06 4 4 4 Z " fill="#040606" transform="translate(543,170)"/>
<path d="M0 0 C13 0 13 0 17 2 C16.98839844 2.85464844 16.97679687 3.70929688 16.96484375 4.58984375 C16.95582031 5.69457031 16.94679688 6.79929688 16.9375 7.9375 C16.92589844 9.03964844 16.91429687 10.14179688 16.90234375 11.27734375 C16.68737429 13.91447634 16.68737429 13.91447634 18 15 C18.12494616 16.62139437 18.17571624 18.24884122 18.1875 19.875 C18.20167969 20.75929687 18.21585938 21.64359375 18.23046875 22.5546875 C18 25 18 25 16 28 C13.19359893 28.2224948 10.66883108 28.28088481 7.875 28.1875 C5.27625 28.125625 2.6775 28.06375 0 28 C0 18.76 0 9.52 0 0 Z M4 4 C4 6.64 4 9.28 4 12 C5.47906892 12.02689216 6.95827483 12.04634621 8.4375 12.0625 C9.67306641 12.07990234 9.67306641 12.07990234 10.93359375 12.09765625 C12.99163938 12.23267348 12.99163938 12.23267348 14 11 C14.16666667 8 14.16666667 8 14 5 C12.99163938 3.76732652 12.99163938 3.76732652 10.93359375 3.90234375 C9.69802734 3.91974609 9.69802734 3.91974609 8.4375 3.9375 C7.19806641 3.95103516 7.19806641 3.95103516 5.93359375 3.96484375 C4.97646484 3.98224609 4.97646484 3.98224609 4 4 Z M4 16 C4 18.97 4 21.94 4 25 C9.24107321 25.43080161 9.24107321 25.43080161 14.0625 23.875 C15.46771358 21.06457284 14.72549141 18.96791942 14 16 C10.7 16 7.4 16 4 16 Z " fill="#040606" transform="translate(647,170)"/>
<path d="M0 0 C0.99 0 1.98 0 3 0 C3.33 6.93 3.66 13.86 4 21 C4.71027344 19.56785156 5.42054688 18.13570312 6.15234375 16.66015625 C7.08062427 14.79421864 8.00901539 12.92833606 8.9375 11.0625 C9.40607422 10.11697266 9.87464844 9.17144531 10.35742188 8.19726562 C10.80537109 7.29814453 11.25332031 6.39902344 11.71484375 5.47265625 C12.12855225 4.64000244 12.54226074 3.80734863 12.96850586 2.94946289 C14 1 14 1 15 0 C16.65 0 18.3 0 20 0 C20 9.24 20 18.48 20 28 C18.68 28 17.36 28 16 28 C15.67 21.73 15.34 15.46 15 9 C11.7 15.27 8.4 21.54 5 28 C3.35 28 1.7 28 0 28 C0 18.76 0 9.52 0 0 Z " fill="#040606" transform="translate(516,170)"/>
<path d="M0 0 C0.99 0 1.98 0 3 0 C3.33 6.93 3.66 13.86 4 21 C4.71027344 19.56785156 5.42054688 18.13570312 6.15234375 16.66015625 C7.08062427 14.79421864 8.00901539 12.92833606 8.9375 11.0625 C9.40607422 10.11697266 9.87464844 9.17144531 10.35742188 8.19726562 C10.80537109 7.29814453 11.25332031 6.39902344 11.71484375 5.47265625 C12.12855225 4.64000244 12.54226074 3.80734863 12.96850586 2.94946289 C14 1 14 1 15 0 C16.65 0 18.3 0 20 0 C20 9.24 20 18.48 20 28 C18.68 28 17.36 28 16 28 C15.67 21.73 15.34 15.46 15 9 C11.7 15.27 8.4 21.54 5 28 C3.35 28 1.7 28 0 28 C0 18.76 0 9.52 0 0 Z " fill="#040606" transform="translate(391,170)"/>
<path d="M0 0 C4.29 0 8.58 0 13 0 C17 4 17 4 17.390625 6.03515625 C17.32101562 7.03869141 17.32101562 7.03869141 17.25 8.0625 C17.01421619 11.77609508 16.94870455 14.72300457 17.625 18.375 C18.00953142 22.09213703 17.71919233 23.75263671 16 27 C15 28 15 28 11.62109375 28.09765625 C10.22652508 28.09191424 8.83198403 28.07890228 7.4375 28.0625 C4.983125 28.041875 2.52875 28.02125 0 28 C0 18.76 0 9.52 0 0 Z M3 4 C3 6.64 3 9.28 3 12 C4.47906892 12.02689216 5.95827483 12.04634621 7.4375 12.0625 C8.67306641 12.07990234 8.67306641 12.07990234 9.93359375 12.09765625 C11.99163938 12.23267348 11.99163938 12.23267348 13 11 C13.16666667 8 13.16666667 8 13 5 C11.99163938 3.76732652 11.99163938 3.76732652 9.93359375 3.90234375 C8.69802734 3.91974609 8.69802734 3.91974609 7.4375 3.9375 C6.19806641 3.95103516 6.19806641 3.95103516 4.93359375 3.96484375 C3.97646484 3.98224609 3.97646484 3.98224609 3 4 Z M3 16 C3 18.97 3 21.94 3 25 C7.50901363 25.17957899 7.50901363 25.17957899 12 25 C14.33278733 23.10892859 14.33278733 23.10892859 14.1875 19.9375 C14.33187793 17.11166864 14.33187793 17.11166864 13 16 C11.31391034 15.92794489 9.62499341 15.91613932 7.9375 15.9375 C7.01839844 15.94652344 6.09929687 15.95554688 5.15234375 15.96484375 C4.44207031 15.97644531 3.73179687 15.98804688 3 16 Z " fill="#040606" transform="translate(416,170)"/>
<path d="M0 0 C0 9.24 0 18.48 0 28 C-1.32 28 -2.64 28 -4 28 C-4 24.7 -4 21.4 -4 18 C-6.883975 17.78209281 -6.883975 17.78209281 -10 19 C-11.77165873 21.8453913 -12.91376616 24.83714265 -14 28 C-15.65 28 -17.3 28 -19 28 C-18.68804687 27.39671875 -18.37609375 26.7934375 -18.0546875 26.171875 C-17.66539062 25.37265625 -17.27609375 24.5734375 -16.875 23.75 C-16.48054688 22.96109375 -16.08609375 22.1721875 -15.6796875 21.359375 C-14.74915082 19.00295276 -14.74915082 19.00295276 -15.8203125 16.765625 C-16.88069165 15.05426987 -16.88069165 15.05426987 -18 14 C-18.12494616 12.37860563 -18.17571624 10.75115878 -18.1875 9.125 C-18.20167969 8.24070313 -18.21585937 7.35640625 -18.23046875 6.4453125 C-18 4 -18 4 -16 1 C-13 0 -13 0 0 0 Z M-13 4 C-15.33775029 6.83573263 -15.33775029 6.83573263 -14.75 10.125 C-14.5025 11.07375 -14.255 12.0225 -14 13 C-11.71294169 14.14352916 -10.40735238 14.10334439 -7.875 14.0625 C-6.59625 14.041875 -5.3175 14.02125 -4 14 C-4 10.7 -4 7.4 -4 4 C-8.51986749 3.72834821 -8.51986749 3.72834821 -13 4 Z " fill="#040606" transform="translate(479,170)"/>
<path d="M0 0 C5.61 0 11.22 0 17 0 C17 9.24 17 18.48 17 28 C15.68 28 14.36 28 13 28 C13 20.08 13 12.16 13 4 C10.03 4 7.06 4 4 4 C4.02320313 5.48113281 4.04640625 6.96226562 4.0703125 8.48828125 C4.08907 10.42968247 4.10727022 12.37108913 4.125 14.3125 C4.15013672 15.77719727 4.15013672 15.77719727 4.17578125 17.27148438 C4.18222656 18.20927734 4.18867188 19.14707031 4.1953125 20.11328125 C4.20578613 20.97735596 4.21625977 21.84143066 4.22705078 22.73168945 C4 25 4 25 2 28 C-0.625 28.1875 -0.625 28.1875 -3 28 C-3 27.01 -3 26.02 -3 25 C-2.34 24.67 -1.68 24.34 -1 24 C-0.67 16.08 -0.34 8.16 0 0 Z " fill="#040606" transform="translate(494,170)"/>
<path d="M0 0 C1.5625 1.125 1.5625 1.125 2.5625 3.125 C2.82726982 6.41055276 2.7940145 9.70495886 2.8125 13 C2.833125 13.91136719 2.85375 14.82273438 2.875 15.76171875 C2.88015625 16.64214844 2.8853125 17.52257812 2.890625 18.4296875 C2.90464355 19.6360083 2.90464355 19.6360083 2.91894531 20.86669922 C2.47489929 23.68000448 1.47590224 25.04619902 -0.4375 27.125 C-4.38867406 28.41246121 -8.34145764 28.3582005 -12.375 27.5 C-15.13262184 25.66158544 -15.46517523 24.28612634 -16.4375 21.125 C-16.703125 17.53125 -16.703125 17.53125 -16.6875 13.625 C-16.69265625 12.3359375 -16.6978125 11.046875 -16.703125 9.71875 C-16.45399351 6.34814743 -15.97079988 4.10886776 -14.4375 1.125 C-10.5207131 -2.03855865 -4.52787554 -1.62539122 0 0 Z M-12.4375 5.125 C-12.66257384 8.00126829 -12.76180406 10.74953024 -12.75 13.625 C-12.76611328 14.41003906 -12.78222656 15.19507813 -12.79882812 16.00390625 C-12.83704677 18.54685612 -12.83704677 18.54685612 -12.4375 22.125 C-8.98087669 24.42941554 -7.48892119 24.38360135 -3.4375 24.125 C-2.7775 23.795 -2.1175 23.465 -1.4375 23.125 C-0.27401132 19.63453395 -0.26915224 16.80222983 -0.25 13.125 C-0.23582031 11.8875 -0.22164062 10.65 -0.20703125 9.375 C-0.17878981 5.97740575 -0.17878981 5.97740575 -2.4375 3.125 C-4.34207929 2.68672799 -4.34207929 2.68672799 -6.4375 2.8125 C-7.489375 2.81830078 -7.489375 2.81830078 -8.5625 2.82421875 C-10.6791577 2.97587054 -10.6791577 2.97587054 -12.4375 5.125 Z " fill="#040606" transform="translate(685.4375,170.875)"/>
<path d="M0 0 C2.82596896 0.53093962 4.71907769 1.55140447 6.93359375 3.36328125 C8.20223539 7.16920618 8.15679447 10.77198766 8.18359375 14.73828125 C8.20421875 15.49367187 8.22484375 16.2490625 8.24609375 17.02734375 C8.27789271 21.57459523 8.05450635 24.77769944 4.93359375 28.36328125 C1.01151647 29.82487934 -2.99525655 29.63676628 -7.00390625 28.61328125 C-9.06640625 27.36328125 -9.06640625 27.36328125 -11.06640625 24.36328125 C-11.54140468 21.25440708 -11.48268061 18.12967634 -11.50390625 14.98828125 C-11.53677734 14.1375 -11.56964844 13.28671875 -11.60351562 12.41015625 C-11.64165215 7.95858351 -11.51334897 5.96584896 -8.7890625 2.29296875 C-5.43397216 -0.08495755 -3.94376279 -0.26092949 0 0 Z M-7.06640625 5.36328125 C-8.11977136 8.52337658 -8.26673513 10.91859485 -8.31640625 14.23828125 C-8.3421875 15.26695312 -8.36796875 16.295625 -8.39453125 17.35546875 C-8.01815593 20.80557585 -7.22192269 22.65532124 -5.06640625 25.36328125 C-1.52409816 25.94670478 -1.52409816 25.94670478 1.93359375 25.36328125 C5.09091215 22.20596285 4.99945256 18.66127003 5.12109375 14.36328125 C5.07948646 10.69490545 4.65131354 7.08100104 1.93359375 4.36328125 C-2.7172934 4.05804163 -2.7172934 4.05804163 -7.06640625 5.36328125 Z " fill="#040606" transform="translate(249.06640625,169.63671875)"/>
<path d="M0 0 C4.95 0 9.9 0 15 0 C15 1.32 15 2.64 15 4 C11.04 4 7.08 4 3 4 C3 6.64 3 9.28 3 12 C3.67546875 11.95359375 4.3509375 11.9071875 5.046875 11.859375 C12.21366721 11.56938919 12.21366721 11.56938919 15.625 13.4375 C17.62193414 17.15905907 17.84542152 20.86428933 17 25 C16.01 25.99 15.02 26.98 14 28 C9.38 28 4.76 28 0 28 C0 18.76 0 9.52 0 0 Z M3 16 C3 18.97 3 21.94 3 25 C4.27875 25.020625 5.5575 25.04125 6.875 25.0625 C7.59429687 25.07410156 8.31359375 25.08570313 9.0546875 25.09765625 C11.08185404 25.12649242 11.08185404 25.12649242 13 24 C13.84298574 21.61915122 13.84298574 21.61915122 14 19 C13.34 18.01 12.68 17.02 12 16 C8.96133201 15.58862798 6.07840297 15.86806844 3 16 Z " fill="#040606" transform="translate(262,170)"/>
<path d="M0 0 C13 0 13 0 17 2 C18.32528378 6.30336401 18.31428743 10.71665965 17.25 15.0625 C16 17 16 17 13 18 C11.43881572 18.06740865 9.8749748 18.08514456 8.3125 18.0625 C6.1778125 18.0315625 6.1778125 18.0315625 4 18 C4 21.3 4 24.6 4 28 C2.68 28 1.36 28 0 28 C0 18.76 0 9.52 0 0 Z M4 4 C4 7.3 4 10.6 4 14 C8.0100934 14.17864631 8.0100934 14.17864631 12 14 C14.39564928 12.05032721 14.39564928 12.05032721 14.1875 8.4375 C14.39287806 5.17036305 14.39287806 5.17036305 13 4 C9.99668982 3.85806663 7.00782866 3.95763622 4 4 Z " fill="#040606" transform="translate(584,170)"/>
<path d="M0 0 C6.27 0 12.54 0 19 0 C19 9.24 19 18.48 19 28 C17.68 28 16.36 28 15 28 C15 20.08 15 12.16 15 4 C11.04 4 7.08 4 3 4 C3 11.92 3 19.84 3 28 C2.01 28 1.02 28 0 28 C0 18.76 0 9.52 0 0 Z " fill="#040606" transform="translate(325,170)"/>
<path d="M0 0 C1.65 0.33 3.3 0.66 5 1 C7.64 9.91 10.28 18.82 13 28 C11.35 27.67 9.7 27.34 8 27 C8 25.68 8 24.36 8 23 C4.37 23 0.74 23 -3 23 C-3.33 24.65 -3.66 26.3 -4 28 C-5.32 28 -6.64 28 -8 28 C-6.86722118 21.51226674 -5.28817432 15.25098109 -3.4375 8.9375 C-3.10455933 7.79390015 -3.10455933 7.79390015 -2.76489258 6.62719727 C-1.12744926 1.12744926 -1.12744926 1.12744926 0 0 Z M2 7 C0.18757677 11.0188515 -1.33501617 14.61110675 -2 19 C0.64 19 3.28 19 6 19 C5.01 15.04 4.02 11.08 3 7 C2.67 7 2.34 7 2 7 Z " fill="#040606" transform="translate(445,170)"/>
<path d="M0 0 C2.254554 2.79564696 2.29749386 5.42616866 2.5625 8.9375 C1.2425 8.9375 -0.0775 8.9375 -1.4375 8.9375 C-2.0975 7.2875 -2.7575 5.6375 -3.4375 3.9375 C-6.0775 3.9375 -8.7175 3.9375 -11.4375 3.9375 C-11.4375 10.2075 -11.4375 16.4775 -11.4375 22.9375 C-8.7975 22.9375 -6.1575 22.9375 -3.4375 22.9375 C-2.7775 20.9575 -2.1175 18.9775 -1.4375 16.9375 C-0.1175 16.9375 1.2025 16.9375 2.5625 16.9375 C1.8125 24.6875 1.8125 24.6875 -0.4375 26.9375 C-4.60135807 28.02550221 -8.28655422 28.32931133 -12.375 26.9375 C-16.20713345 23.22149181 -16.53721868 18.61840512 -16.6875 13.5 C-16.56470905 9.01813037 -15.92562657 5.17866071 -14.4375 0.9375 C-10.79601937 -2.42386674 -4.3021688 -1.87530435 0 0 Z " fill="#040606" transform="translate(621.4375,171.0625)"/>
<path d="M0 0 C3.41886895 0.86161012 4.94716288 2.68936967 6.9375 5.48828125 C7.25 8.30078125 7.25 8.30078125 6.9375 10.48828125 C5.6175 10.48828125 4.2975 10.48828125 2.9375 10.48828125 C2.9375 8.83828125 2.9375 7.18828125 2.9375 5.48828125 C0.2975 5.48828125 -2.3425 5.48828125 -5.0625 5.48828125 C-7.00023248 8.74859305 -7.33322187 11.21690061 -7.3125 14.98828125 C-7.32023437 16.3959375 -7.32023437 16.3959375 -7.328125 17.83203125 C-7.05845232 20.52875801 -6.4357259 22.17777418 -5.0625 24.48828125 C-2.4225 24.48828125 0.2175 24.48828125 2.9375 24.48828125 C3.2675 22.50828125 3.5975 20.52828125 3.9375 18.48828125 C4.9275 18.48828125 5.9175 18.48828125 6.9375 18.48828125 C7.30553406 24.99021623 7.30553406 24.99021623 5.69921875 27.1640625 C2.50670895 29.5637539 -1.1645893 29.61137317 -5.0625 29.48828125 C-8.0625 28.23828125 -8.0625 28.23828125 -10.0625 26.48828125 C-11.39384925 22.49423349 -11.36432913 18.79732489 -11.4375 14.61328125 C-11.49357422 13.40865234 -11.49357422 13.40865234 -11.55078125 12.1796875 C-11.61508965 7.8424431 -11.47151733 6.03363768 -8.7890625 2.45703125 C-5.46918957 0.05987372 -3.94873577 -0.26175332 0 0 Z " fill="#040606" transform="translate(314.0625,169.51171875)"/>
<path d="M0 0 C4.95 0 9.9 0 15 0 C15 1.32 15 2.64 15 4 C11.04 4 7.08 4 3 4 C3 6.64 3 9.28 3 12 C6.63 12 10.26 12 14 12 C14 13.32 14 14.64 14 16 C10.37 16 6.74 16 3 16 C3 18.97 3 21.94 3 25 C6.96 25 10.92 25 15 25 C15 25.99 15 26.98 15 28 C10.05 28 5.1 28 0 28 C0 18.76 0 9.52 0 0 Z " fill="#040606" transform="translate(565,170)"/>
<path d="M0 0 C4.95 0 9.9 0 15 0 C15 1.32 15 2.64 15 4 C11.04 4 7.08 4 3 4 C3 6.64 3 9.28 3 12 C6.63 12 10.26 12 14 12 C14 13.32 14 14.64 14 16 C10.37 16 6.74 16 3 16 C3 18.97 3 21.94 3 25 C6.96 25 10.92 25 15 25 C15 25.99 15 26.98 15 28 C10.05 28 5.1 28 0 28 C0 18.76 0 9.52 0 0 Z " fill="#040606" transform="translate(349,170)"/>
<path d="M0 0 C4.95 0 9.9 0 15 0 C15 1.32 15 2.64 15 4 C11.04 4 7.08 4 3 4 C3 6.64 3 9.28 3 12 C6.63 12 10.26 12 14 12 C14 13.32 14 14.64 14 16 C10.37 16 6.74 16 3 16 C3 18.97 3 21.94 3 25 C6.96 25 10.92 25 15 25 C15 25.99 15 26.98 15 28 C10.05 28 5.1 28 0 28 C0 18.76 0 9.52 0 0 Z " fill="#040606" transform="translate(284,170)"/>
<path d="M0 0 C1.32 0 2.64 0 4 0 C4.33 3.63 4.66 7.26 5 11 C9.48133574 11.72256829 9.48133574 11.72256829 14 12 C14 8.04 14 4.08 14 0 C15.32 0 16.64 0 18 0 C18 9.24 18 18.48 18 28 C16.68 28 15.36 28 14 28 C14 24.04 14 20.08 14 16 C12.246875 16.0825 10.49375 16.165 8.6875 16.25 C3.55756014 16.49140893 3.55756014 16.49140893 1.15625 14.375 C-0.32383583 11.33482371 -0.29727318 9.11637756 -0.1875 5.75 C-0.14689453 4.13351563 -0.14689453 4.13351563 -0.10546875 2.484375 C-0.07066406 1.66453125 -0.03585937 0.8446875 0 0 Z " fill="#040606" transform="translate(368,170)"/>
<path d="M0 0 C5.94 0 11.88 0 18 0 C18 1.32 18 2.64 18 4 C15.69 4 13.38 4 11 4 C11 11.92 11 19.84 11 28 C9.68 28 8.36 28 7 28 C7 20.08 7 12.16 7 4 C4.69 4 2.38 4 0 4 C0 2.68 0 1.36 0 0 Z " fill="#040606" transform="translate(626,170)"/>
</svg>
